<svg width="81" height="50" viewBox="0 0 81 50" fill="none" xmlns="http://www.w3.org/2000/svg">
<mask id="mask0_887_11880" style="mask-type:luminance" maskUnits="userSpaceOnUse" x="0" y="0" width="81" height="31">
<path fill-rule="evenodd" clip-rule="evenodd" d="M0 0H80.0265V30.1213H0V0Z" fill="white"/>
</mask>
<g mask="url(#mask0_887_11880)">
<path d="M31.5569 1.63947C31.5569 6.27255 35.3043 10.0269 39.9288 10.0269C44.5534 10.0269 48.3008 6.27255 48.3008 1.63947H51.5442C51.5442 8.06611 46.3436 13.2763 39.9288 13.2763C33.514 13.2763 28.3135 8.06611 28.3135 1.63947" fill="#66BDE2"/>
<path d="M48.3008 15.6305C48.3008 10.9974 44.5534 7.2431 39.9288 7.2431C35.3043 7.2431 31.5569 10.9974 31.5569 15.6305H28.3135C28.3135 9.20389 33.514 3.99371 39.9288 3.99371C46.3436 3.99371 51.5442 9.20389 51.5442 15.6305" fill="#66BDE2"/>
<path d="M1.63647 24.6049C1.63647 22.3654 3.33508 20.7063 5.61626 20.7063C6.70285 20.7063 7.67815 21.0571 8.34582 21.7719L7.99562 22.1326C7.33778 21.4834 6.53593 21.2211 5.63917 21.2211C3.67546 21.2211 2.19613 22.6704 2.19613 24.6049C2.19613 26.5395 3.67546 27.9887 5.63917 27.9887C6.5392 27.9887 7.33778 27.7133 7.99562 27.0674L8.34582 27.4313C7.67815 28.1461 6.70285 28.5068 5.61626 28.5068C3.33508 28.5035 1.63647 26.8444 1.63647 24.6049Z" fill="#F29216"/>
<path d="M14.5512 25.8148L12.5351 21.3752L10.5288 25.8148H14.5512ZM14.7606 26.287H10.3095L9.33424 28.451H8.72876L12.2602 20.762H12.8198L16.348 28.4478H15.7457L14.7606 26.287Z" fill="#F29216"/>
<path d="M18.3018 21.267V24.5492H22.3896V25.0541H18.3018V28.4478H17.7422V20.762H22.874V21.267H18.3018Z" fill="#F29216"/>
<path d="M27.204 20.1357H26.6116L28.1368 18.8406H28.9255L27.204 20.1357ZM29.9565 27.9428V28.4478H24.661V20.762H29.7896V21.267H25.2207V24.2967H29.3085V24.7918H25.2207V27.9428H29.9565Z" fill="#F29216"/>
<path d="M34.0769 24.6049C34.0769 22.3654 35.7755 20.7063 38.0567 20.7063C39.1433 20.7063 40.1186 21.0571 40.7862 21.7719L40.4361 22.1326C39.7782 21.4834 38.9796 21.2211 38.0796 21.2211C36.1159 21.2211 34.6366 22.6704 34.6366 24.6049C34.6366 26.5395 36.1159 27.9887 38.0796 27.9887C38.9796 27.9887 39.7782 27.7133 40.4361 27.0674L40.7862 27.4313C40.1186 28.1461 39.1433 28.5068 38.0567 28.5068C35.7755 28.5068 34.0769 26.8477 34.0769 24.6082" fill="#094795"/>
<path d="M47.9571 27.9428V28.4478H42.6616V20.762H47.7934V21.267H43.2213V24.2967H47.3091V24.7918H43.2213V27.9428H47.9571Z" fill="#094795"/>
<path d="M56.2472 20.762V28.4478H55.7858L50.5558 21.7719V28.4478H49.9961V20.762H50.4674L55.6843 27.4379V20.762H56.2472Z" fill="#094795"/>
<path d="M58.1455 27.4608L58.3975 27.0444C58.9244 27.5919 59.8998 28.0116 60.9307 28.0116C62.4657 28.0116 63.1432 27.3427 63.1432 26.5066C63.1432 24.2016 58.3517 25.5853 58.3517 22.7523C58.3517 21.6637 59.1863 20.7095 61.0714 20.7095C61.9158 20.7095 62.793 20.9751 63.3853 21.4014L63.1759 21.8506C62.5409 21.4112 61.762 21.2014 61.0714 21.2014C59.5823 21.2014 58.9114 21.8932 58.9114 22.7392C58.9114 25.0442 63.7028 23.6835 63.7028 26.4738C63.7028 27.5624 62.8355 28.5068 60.9405 28.5068C59.8016 28.5068 58.7052 28.0772 58.1455 27.4641" fill="#094795"/>
<path d="M70.1372 25.8148L68.1212 21.3785L66.1149 25.8148H70.1372ZM70.3467 26.287H65.8956L64.9203 28.451H64.3181L67.8462 20.762H68.4059L71.9373 28.451H71.3351L70.3467 26.287Z" fill="#094795"/>
<path d="M73.3282 20.762H73.8879V27.9428H78.3063V28.4478H73.3282V20.762Z" fill="#094795"/>
</g>
<mask id="mask1_887_11880" style="mask-type:luminance" maskUnits="userSpaceOnUse" x="8" y="31" width="64" height="19">
<path fill-rule="evenodd" clip-rule="evenodd" d="M8.67285 31.7471H71.6966V49.1083H8.67285V31.7471Z" fill="white"/>
</mask>
<g mask="url(#mask1_887_11880)">
<path d="M14.9212 44.8669L13.0328 49.0783H12.7217L10.8334 44.8669H11.1747L12.8859 48.679L14.5971 44.8669H14.9212Z" fill="#1D1D1B"/>
</g>
<mask id="mask2_887_11880" style="mask-type:luminance" maskUnits="userSpaceOnUse" x="8" y="31" width="64" height="19">
<path fill-rule="evenodd" clip-rule="evenodd" d="M8.67285 31.7471H71.6966V49.1083H8.67285V31.7471Z" fill="white"/>
</mask>
<g mask="url(#mask2_887_11880)">
<path d="M17.3021 44.8669H17.6089V49.0783H17.3021V44.8669Z" fill="#1D1D1B"/>
</g>
<mask id="mask3_887_11880" style="mask-type:luminance" maskUnits="userSpaceOnUse" x="8" y="31" width="64" height="19">
<path fill-rule="evenodd" clip-rule="evenodd" d="M8.67285 31.7471H71.6966V49.1083H8.67285V31.7471Z" fill="white"/>
</mask>
<g mask="url(#mask3_887_11880)">
<path d="M20.785 44.8669H21.0918V48.7992H23.529V49.074H20.785V44.8669Z" fill="#1D1D1B"/>
</g>
<mask id="mask4_887_11880" style="mask-type:luminance" maskUnits="userSpaceOnUse" x="8" y="31" width="64" height="19">
<path fill-rule="evenodd" clip-rule="evenodd" d="M8.67285 31.7471H71.6966V49.1083H8.67285V31.7471Z" fill="white"/>
</mask>
<g mask="url(#mask4_887_11880)">
<path d="M26.0265 44.8669H26.3333V48.7992H28.7747V49.074H26.0265V44.8669Z" fill="#1D1D1B"/>
</g>
<mask id="mask5_887_11880" style="mask-type:luminance" maskUnits="userSpaceOnUse" x="8" y="31" width="64" height="19">
<path fill-rule="evenodd" clip-rule="evenodd" d="M8.67285 31.7471H71.6966V49.1083H8.67285V31.7471Z" fill="white"/>
</mask>
<g mask="url(#mask5_887_11880)">
<path d="M33.7744 47.6359L32.6595 45.2061L31.5533 47.6359H33.7744ZM33.891 47.8934H31.4323L30.8922 49.0783H30.5594L32.5083 44.8712H32.8194L34.7682 49.0783H34.4355L33.891 47.8934Z" fill="#1D1D1B"/>
</g>
<mask id="mask6_887_11880" style="mask-type:luminance" maskUnits="userSpaceOnUse" x="8" y="31" width="64" height="19">
<path fill-rule="evenodd" clip-rule="evenodd" d="M8.67285 31.7471H71.6966V49.1083H8.67285V31.7471Z" fill="white"/>
</mask>
<g mask="url(#mask6_887_11880)">
<path d="M36.5787 48.5073L36.7645 48.3013C36.9936 48.6447 37.322 48.8293 37.7022 48.8293C38.264 48.8293 38.5448 48.5116 38.5448 47.8376V45.146H36.9849V44.8712H38.856V47.8419C38.856 48.6876 38.4628 49.1083 37.7066 49.1083C37.2485 49.1083 36.825 48.8851 36.5787 48.5073Z" fill="#1D1D1B"/>
</g>
<mask id="mask7_887_11880" style="mask-type:luminance" maskUnits="userSpaceOnUse" x="8" y="31" width="64" height="19">
<path fill-rule="evenodd" clip-rule="evenodd" d="M8.67285 31.7471H71.6966V49.1083H8.67285V31.7471Z" fill="white"/>
</mask>
<g mask="url(#mask7_887_11880)">
<path d="M45.6834 46.9747C45.6834 45.9101 44.871 45.1245 43.7951 45.1245C42.7105 45.1245 41.9024 45.9144 41.9024 46.9747C41.9024 48.0351 42.7148 48.825 43.7951 48.825C44.871 48.825 45.6834 48.0351 45.6834 46.9747ZM41.5913 46.9747C41.5913 45.7555 42.529 44.8411 43.7951 44.8411C45.0525 44.8411 45.9989 45.7512 45.9989 46.9747C45.9989 48.1982 45.0569 49.1083 43.7951 49.1083C42.529 49.1083 41.5913 48.1939 41.5913 46.9747Z" fill="#1D1D1B"/>
</g>
<mask id="mask8_887_11880" style="mask-type:luminance" maskUnits="userSpaceOnUse" x="8" y="31" width="64" height="19">
<path fill-rule="evenodd" clip-rule="evenodd" d="M8.67285 31.7471H71.6966V49.1083H8.67285V31.7471Z" fill="white"/>
</mask>
<g mask="url(#mask8_887_11880)">
<path d="M49.8922 47.6272V49.0783H49.5854V47.6272L47.8785 44.8669H48.2156L49.7453 47.3439L51.2749 44.8669H51.5947L49.8922 47.6272Z" fill="#1D1D1B"/>
</g>
<mask id="mask9_887_11880" style="mask-type:luminance" maskUnits="userSpaceOnUse" x="8" y="31" width="64" height="19">
<path fill-rule="evenodd" clip-rule="evenodd" d="M8.67285 31.7471H71.6966V49.1083H8.67285V31.7471Z" fill="white"/>
</mask>
<g mask="url(#mask9_887_11880)">
<path d="M57.5708 46.9747C57.5708 45.9101 56.7584 45.1245 55.6824 45.1245C54.5978 45.1245 53.7854 45.9144 53.7854 46.9747C53.7854 48.0351 54.5978 48.825 55.6824 48.825C56.7584 48.825 57.5708 48.0351 57.5708 46.9747ZM53.4786 46.9747C53.4786 45.7555 54.4163 44.8411 55.6824 44.8411C56.9399 44.8411 57.8862 45.7512 57.8862 46.9747C57.8862 48.1982 56.9399 49.1083 55.6824 49.1083C54.4163 49.1083 53.4786 48.1939 53.4786 46.9747Z" fill="#1D1D1B"/>
</g>
<mask id="mask10_887_11880" style="mask-type:luminance" maskUnits="userSpaceOnUse" x="8" y="31" width="64" height="19">
<path fill-rule="evenodd" clip-rule="evenodd" d="M8.67285 31.7471H71.6966V49.1083H8.67285V31.7471Z" fill="white"/>
</mask>
<g mask="url(#mask10_887_11880)">
<path d="M60.224 48.5374L60.3623 48.3098C60.6518 48.6103 61.1919 48.8379 61.7623 48.8379C62.6093 48.8379 62.9852 48.4687 62.9852 48.0136C62.9852 46.7515 60.3407 47.5071 60.3407 45.9573C60.3407 45.3606 60.7987 44.8369 61.8401 44.8369C62.3068 44.8369 62.7908 44.9828 63.1192 45.2146L63.0025 45.4593C62.6525 45.2189 62.2204 45.103 61.8401 45.103C61.0191 45.103 60.6475 45.4808 60.6475 45.9444C60.6475 47.2066 63.292 46.4596 63.292 47.9879C63.292 48.5846 62.8124 49.0997 61.7666 49.0997C61.1358 49.0997 60.5308 48.8636 60.224 48.5288" fill="#1D1D1B"/>
</g>
<mask id="mask11_887_11880" style="mask-type:luminance" maskUnits="userSpaceOnUse" x="8" y="31" width="64" height="19">
<path fill-rule="evenodd" clip-rule="evenodd" d="M8.67285 31.7471H71.6966V49.1083H8.67285V31.7471Z" fill="white"/>
</mask>
<g mask="url(#mask11_887_11880)">
<path d="M68.5422 47.6359L67.4273 45.2061L66.3211 47.6359H68.5422ZM68.6589 47.8934H66.2001L65.66 49.0783H65.3273L67.2761 44.8712H67.5829L69.5317 49.0783H69.199L68.6589 47.8934Z" fill="#1D1D1B"/>
</g>
<mask id="mask12_887_11880" style="mask-type:luminance" maskUnits="userSpaceOnUse" x="8" y="31" width="64" height="19">
<path fill-rule="evenodd" clip-rule="evenodd" d="M8.67285 31.7471H71.6966V49.1083H8.67285V31.7471Z" fill="white"/>
</mask>
<g mask="url(#mask12_887_11880)">
<path d="M55.7084 37.2555C55.6609 37.5045 55.5442 37.7149 55.3238 37.8522C55.1726 37.9467 55.0084 37.9467 54.8399 37.8995C54.7534 37.8737 54.6713 37.8351 54.5806 37.8222C54.5028 37.8093 54.3861 37.8265 54.3127 37.8737C54.5287 37.9596 54.6195 38.1442 54.6843 38.3459C54.7059 38.4146 54.7275 38.4833 54.7534 38.5477C54.8183 38.728 54.9522 38.8224 55.138 38.8482C55.1769 38.8568 55.2201 38.8611 55.259 38.8697C55.3065 38.874 55.3195 38.9126 55.2936 38.9469C55.1467 39.1144 54.9695 39.2389 54.7448 39.2818C54.5201 39.329 54.33 39.256 54.1744 39.0886C54.1269 39.0371 54.0837 38.9813 54.0361 38.9341C53.9497 38.8439 53.8417 38.8096 53.7207 38.7924C53.7941 38.9126 53.8158 39.0328 53.7985 39.1616C53.7898 39.2346 53.7725 39.3075 53.7596 39.3762C53.7423 39.4664 53.725 39.5522 53.7293 39.6424C53.7293 39.8184 53.8114 39.9472 53.9584 40.033C53.9929 40.0545 54.0275 40.0674 54.0621 40.0889C54.0966 40.1103 54.1053 40.149 54.0621 40.1704C53.8201 40.2863 53.4744 40.3121 53.241 40.1318C53.1028 40.0288 53.025 39.8871 52.9947 39.724C52.9861 39.6853 52.9818 39.6467 52.9731 39.608C52.9429 39.4835 52.8565 39.402 52.7441 39.3376C52.7484 39.5007 52.6707 39.6252 52.567 39.7411C52.5324 39.7798 52.4935 39.8184 52.4589 39.8613C52.4071 39.9171 52.3552 39.9772 52.3163 40.0416C52.2299 40.1962 52.2256 40.3507 52.3206 40.5053C52.3336 40.531 52.3509 40.5568 52.3682 40.5825C52.3898 40.6212 52.3725 40.6598 52.3293 40.6598C52.0182 40.6598 51.6898 40.4881 51.599 40.1661C51.5644 40.0459 51.5774 39.9257 51.6249 39.8055C51.6552 39.7197 51.6898 39.6381 51.6898 39.5479C51.6854 39.4664 51.6552 39.3934 51.612 39.3204C51.5515 39.4277 51.4651 39.5007 51.3614 39.5479C51.3009 39.5737 51.2447 39.5909 51.1842 39.608C51.1107 39.6295 51.0373 39.6467 50.9681 39.6681C50.7305 39.7454 50.6052 39.9086 50.5879 40.1575C50.5879 40.1876 50.5879 40.2133 50.5576 40.2305C50.5274 40.2391 50.5058 40.2219 50.4842 40.2048C50.3805 40.1146 50.2897 40.0116 50.2292 39.8828C50.1039 39.6295 50.1471 39.3848 50.3459 39.1873C50.3891 39.1444 50.4323 39.1015 50.4798 39.0671C50.5835 38.9984 50.6311 38.8997 50.6484 38.7838C50.6527 38.7666 50.6527 38.7452 50.657 38.7237C50.5187 38.8181 50.3675 38.831 50.2119 38.8139C50.1125 38.8053 50.0175 38.7752 49.9224 38.7538C49.8576 38.7366 49.7928 38.7237 49.728 38.7194C49.5724 38.7151 49.4471 38.7795 49.3563 38.8954C49.3304 38.9255 49.3131 38.9555 49.2915 38.9813C49.2613 39.0156 49.2224 39.0156 49.2051 38.9727C49.1446 38.8267 49.1187 38.6765 49.136 38.5176C49.1446 38.4232 49.1705 38.3373 49.2137 38.2558C49.3088 38.0798 49.4687 38.0025 49.6588 37.9724C49.7064 37.9639 49.7582 37.9553 49.8057 37.951C49.9311 37.9338 50.0218 37.8694 50.0996 37.7664C50.0261 37.7664 49.957 37.7621 49.8922 37.7406C49.7971 37.7063 49.7193 37.6548 49.6459 37.5904C49.5724 37.526 49.4989 37.4616 49.4298 37.3929C49.2742 37.2426 49.0971 37.2169 48.9026 37.3113C48.881 37.3199 48.8594 37.3328 48.8335 37.3414C48.7989 37.3543 48.7687 37.3328 48.773 37.2984C48.8162 37.0495 48.9977 36.7318 49.2786 36.6416C49.4168 36.5944 49.5551 36.6073 49.6891 36.6631C49.7625 36.6931 49.8317 36.7275 49.9095 36.7361C49.9959 36.7532 50.0693 36.7318 50.1514 36.6974C49.9483 36.5772 49.8619 36.3883 49.8101 36.1737C49.7971 36.1308 49.7841 36.0878 49.7712 36.0492C49.7064 35.8303 49.5854 35.7358 49.352 35.7315C49.3261 35.7272 49.2959 35.7315 49.2699 35.7315C49.2267 35.7272 49.2051 35.6886 49.231 35.6543C49.3909 35.4525 49.5897 35.3065 49.8576 35.2979C50.0304 35.2894 50.1687 35.358 50.2897 35.4739C50.3329 35.5169 50.3718 35.5598 50.4107 35.607C50.4971 35.7144 50.6138 35.7573 50.7521 35.753C50.6916 35.6714 50.6527 35.5856 50.6397 35.4868C50.6224 35.3752 50.6484 35.2679 50.67 35.1606C50.6873 35.0876 50.7002 35.0103 50.7045 34.933C50.7261 34.7441 50.6484 34.6025 50.4798 34.5123C50.4496 34.4952 50.415 34.4823 50.3848 34.4651C50.3632 34.4565 50.3545 34.4394 50.3545 34.4179C50.3545 34.3964 50.3675 34.3835 50.3848 34.375C50.6181 34.2719 50.8558 34.2505 51.0978 34.3449C51.3009 34.4222 51.4132 34.5853 51.4651 34.7914C51.4737 34.8343 51.4867 34.8772 51.4953 34.9245C51.5212 35.0618 51.6033 35.1606 51.7286 35.2378C51.733 35.1777 51.7286 35.1219 51.7416 35.0661C51.7762 34.9416 51.8496 34.8386 51.9361 34.7441C52.0009 34.6755 52.07 34.6111 52.1262 34.5338C52.2385 34.3878 52.2515 34.2333 52.1694 34.0702C52.1521 34.0358 52.1305 34.0058 52.1132 33.9714C52.0916 33.9328 52.1089 33.9027 52.1478 33.8984C52.4632 33.8641 52.8219 34.1303 52.8781 34.4351C52.8997 34.5638 52.8781 34.684 52.8305 34.8043C52.8003 34.8858 52.7744 34.9631 52.783 35.0532C52.7916 35.1219 52.8176 35.1863 52.8521 35.2507C52.8954 35.1563 52.9645 35.0833 53.0552 35.0318C53.1546 34.9674 53.267 34.9373 53.3793 34.9116C53.4917 34.8858 53.5954 34.8601 53.6818 34.7871C53.7941 34.6926 53.8374 34.5681 53.8503 34.4308C53.8546 34.405 53.8546 34.3792 53.8546 34.3535C53.859 34.2977 53.8935 34.2805 53.9411 34.3149C53.9886 34.3492 54.0361 34.3878 54.0793 34.4308C54.196 34.5553 54.2781 34.7012 54.2997 34.8729C54.317 35.0447 54.2652 35.1949 54.1485 35.3237C54.0923 35.3881 54.0232 35.4396 53.9627 35.4997C53.8676 35.5813 53.8244 35.68 53.8244 35.7959C54.0275 35.6886 54.2263 35.7358 54.4294 35.7916C54.5071 35.8131 54.5892 35.8431 54.6713 35.8517C54.8744 35.8689 55.017 35.7916 55.1035 35.6113C55.1121 35.5984 55.1164 35.5856 55.1251 35.5727C55.1337 35.5512 55.1467 35.5298 55.1726 35.5298C55.1985 35.5298 55.2115 35.5469 55.2201 35.5641C55.3498 35.8217 55.3368 36.1522 55.151 36.3755C55.043 36.5043 54.9004 36.5601 54.7405 36.5815C54.6238 36.5944 54.5115 36.6116 54.4164 36.6931C54.3818 36.7189 54.3473 36.7532 54.317 36.7962C54.5158 36.7747 54.6757 36.852 54.8183 36.9679C54.909 37.0409 54.9954 37.1181 55.0862 37.1911C55.2072 37.2984 55.3454 37.3156 55.4967 37.2598C55.5442 37.2426 55.5874 37.2169 55.635 37.1997C55.6825 37.1825 55.7171 37.2083 55.7084 37.2555Z" fill="#66BDE2"/>
</g>
<mask id="mask13_887_11880" style="mask-type:luminance" maskUnits="userSpaceOnUse" x="8" y="31" width="64" height="19">
<path fill-rule="evenodd" clip-rule="evenodd" d="M8.67285 31.7471H71.6966V49.1083H8.67285V31.7471Z" fill="white"/>
</mask>
<g mask="url(#mask13_887_11880)">
<path d="M44.1018 37.2555C44.0543 37.5045 43.9376 37.7149 43.7173 37.8522C43.566 37.9467 43.4018 37.9467 43.2333 37.8995C43.1469 37.8737 43.0648 37.8351 42.974 37.8222C42.8963 37.8093 42.7796 37.8265 42.7061 37.8737C42.9222 37.9596 43.0129 38.1442 43.0777 38.3459C43.0993 38.4146 43.121 38.4833 43.1469 38.5477C43.2117 38.728 43.3456 38.8224 43.5315 38.8482C43.5703 38.8568 43.6136 38.8611 43.6524 38.8697C43.7 38.874 43.7129 38.9126 43.687 38.9469C43.5401 39.1144 43.3629 39.2389 43.1382 39.2818C42.9135 39.329 42.7234 39.256 42.5678 39.0886C42.5203 39.0371 42.4771 38.9813 42.4296 38.9341C42.3431 38.8439 42.2351 38.8096 42.1141 38.7924C42.1876 38.9126 42.2092 39.0328 42.1919 39.1616C42.1833 39.2346 42.166 39.3075 42.153 39.3762C42.1357 39.4664 42.1184 39.5522 42.1228 39.6424C42.1228 39.8184 42.2049 39.9472 42.3518 40.033C42.3864 40.0545 42.4209 40.0674 42.4555 40.0889C42.4901 40.1103 42.4987 40.149 42.4555 40.1704C42.2135 40.2863 41.8678 40.3121 41.6345 40.1318C41.4962 40.0288 41.4184 39.8871 41.3882 39.724C41.3795 39.6853 41.3752 39.6467 41.3666 39.608C41.3363 39.4835 41.2499 39.402 41.1375 39.3376C41.1419 39.5007 41.0641 39.6252 40.9604 39.7411C40.9258 39.7798 40.8869 39.8184 40.8524 39.8613C40.8005 39.9171 40.7486 39.9772 40.7098 40.0416C40.6233 40.1962 40.619 40.3507 40.7141 40.5053C40.727 40.531 40.7443 40.5568 40.7616 40.5825C40.7832 40.6212 40.7659 40.6598 40.7227 40.6598C40.4116 40.6598 40.0832 40.4881 39.9925 40.1661C39.9579 40.0459 39.9708 39.9257 40.0184 39.8055C40.0486 39.7197 40.0832 39.6381 40.0832 39.5479C40.0789 39.4664 40.0486 39.3934 40.0054 39.3204C39.9449 39.4277 39.8585 39.5007 39.7548 39.5479C39.6943 39.5737 39.6381 39.5909 39.5776 39.608C39.5042 39.6295 39.4307 39.6467 39.3616 39.6681C39.1239 39.7454 38.9986 39.9086 38.9813 40.1575C38.9813 40.1876 38.9813 40.2133 38.9511 40.2305C38.9208 40.2391 38.8992 40.2219 38.8776 40.2048C38.7739 40.1146 38.6831 40.0116 38.6226 39.8828C38.4973 39.6295 38.5405 39.3848 38.7393 39.1873C38.7825 39.1444 38.8257 39.1015 38.8733 39.0671C38.977 38.9984 39.0245 38.8997 39.0418 38.7838C39.0461 38.7666 39.0461 38.7452 39.0504 38.7237C38.9122 38.8181 38.7609 38.831 38.6054 38.8139C38.506 38.8053 38.4109 38.7752 38.3158 38.7538C38.251 38.7366 38.1862 38.7237 38.1214 38.7194C37.9658 38.7151 37.8405 38.7795 37.7498 38.8954C37.7239 38.9255 37.7066 38.9555 37.685 38.9813C37.6547 39.0156 37.6158 39.0156 37.5985 38.9727C37.538 38.8267 37.5121 38.6765 37.5294 38.5176C37.538 38.4232 37.564 38.3373 37.6072 38.2558C37.7022 38.0798 37.8621 38.0025 38.0523 37.9724C38.0998 37.9639 38.1516 37.9553 38.1992 37.951C38.3245 37.9338 38.4152 37.8694 38.493 37.7664C38.4196 37.7664 38.3504 37.7621 38.2856 37.7406C38.1905 37.7063 38.1128 37.6548 38.0393 37.5904C37.9658 37.526 37.8924 37.4616 37.8232 37.3929C37.6677 37.2426 37.4905 37.2169 37.2961 37.3113C37.2745 37.3199 37.2529 37.3328 37.2269 37.3414C37.1924 37.3543 37.1621 37.3328 37.1664 37.2984C37.2096 37.0495 37.3911 36.7318 37.672 36.6416C37.8103 36.5944 37.9486 36.6073 38.0825 36.6631C38.156 36.6931 38.2251 36.7275 38.3029 36.7361C38.3893 36.7532 38.4628 36.7318 38.5449 36.6974C38.3418 36.5772 38.2554 36.3883 38.2035 36.1737C38.1905 36.1308 38.1776 36.0878 38.1646 36.0492C38.0998 35.8303 37.9788 35.7358 37.7455 35.7315C37.7195 35.7272 37.6893 35.7315 37.6634 35.7315C37.6201 35.7272 37.5985 35.6886 37.6245 35.6543C37.7843 35.4525 37.9831 35.3065 38.251 35.2979C38.4239 35.2894 38.5622 35.358 38.6831 35.4739C38.7264 35.5169 38.7652 35.5598 38.8041 35.607C38.8906 35.7144 39.0072 35.7573 39.1455 35.753C39.085 35.6714 39.0461 35.5856 39.0332 35.4868C39.0159 35.3752 39.0418 35.2679 39.0634 35.1606C39.0807 35.0876 39.0937 35.0103 39.098 34.933C39.1196 34.7441 39.0418 34.6025 38.8733 34.5123C38.843 34.4952 38.8085 34.4823 38.7782 34.4651C38.7566 34.4565 38.748 34.4394 38.748 34.4179C38.748 34.3964 38.7609 34.3835 38.7782 34.375C39.0116 34.2719 39.2492 34.2505 39.4912 34.3449C39.6943 34.4222 39.8066 34.5853 39.8585 34.7914C39.8671 34.8343 39.8801 34.8772 39.8887 34.9245C39.9147 35.0618 39.9968 35.1606 40.1221 35.2378C40.1264 35.1777 40.1221 35.1219 40.135 35.0661C40.1696 34.9416 40.2431 34.8386 40.3295 34.7441C40.3943 34.6755 40.4635 34.6111 40.5196 34.5338C40.632 34.3878 40.6449 34.2333 40.5628 34.0702C40.5456 34.0358 40.5239 34.0058 40.5067 33.9714C40.4851 33.9328 40.5023 33.9027 40.5412 33.8984C40.8567 33.8641 41.2153 34.1303 41.2715 34.4351C41.2931 34.5638 41.2715 34.684 41.224 34.8043C41.1937 34.8858 41.1678 34.9631 41.1764 35.0532C41.1851 35.1219 41.211 35.1863 41.2456 35.2507C41.2888 35.1563 41.3579 35.0833 41.4487 35.0318C41.5481 34.9674 41.6604 34.9373 41.7728 34.9116C41.8808 34.8858 41.9888 34.8601 42.0752 34.7871C42.1876 34.6926 42.2308 34.5681 42.2438 34.4308C42.2481 34.405 42.2481 34.3792 42.2481 34.3535C42.2524 34.2977 42.287 34.2805 42.3345 34.3149C42.382 34.3492 42.4296 34.3878 42.4728 34.4308C42.5895 34.5553 42.6716 34.7012 42.6932 34.8729C42.7148 35.0447 42.6586 35.1949 42.5419 35.3237C42.4857 35.3881 42.4166 35.4396 42.3561 35.4997C42.261 35.5813 42.2178 35.68 42.2178 35.7959C42.4209 35.6886 42.6197 35.7358 42.8228 35.7916C42.9006 35.8131 42.9827 35.8431 43.0648 35.8517C43.2679 35.8689 43.4105 35.7916 43.4969 35.6113C43.5055 35.5984 43.5099 35.5856 43.5185 35.5727C43.5271 35.5512 43.5401 35.5298 43.566 35.5298C43.592 35.5298 43.6049 35.5469 43.6136 35.5641C43.7432 35.8217 43.7302 36.1522 43.5444 36.3755C43.4364 36.5043 43.2938 36.5601 43.1339 36.5815C43.0172 36.5944 42.9049 36.6116 42.8098 36.6931C42.7753 36.7189 42.7407 36.7532 42.7104 36.7962C42.9092 36.7747 43.0691 36.852 43.2117 36.9679C43.3024 37.0409 43.3889 37.1181 43.4796 37.1911C43.6006 37.2984 43.7389 37.3156 43.8901 37.2598C43.9376 37.2426 43.9809 37.2169 44.0284 37.1997C44.0759 37.1825 44.1105 37.2083 44.1018 37.2555Z" fill="#66BDE2"/>
</g>
<mask id="mask14_887_11880" style="mask-type:luminance" maskUnits="userSpaceOnUse" x="8" y="31" width="64" height="19">
<path fill-rule="evenodd" clip-rule="evenodd" d="M8.67285 31.7471H71.6966V49.1083H8.67285V31.7471Z" fill="white"/>
</mask>
<g mask="url(#mask14_887_11880)">
<path d="M32.8323 37.2555C32.7848 37.5045 32.6681 37.7149 32.4477 37.8522C32.2965 37.9467 32.1323 37.9467 31.9638 37.8995C31.8773 37.8737 31.7952 37.8351 31.7045 37.8222C31.6267 37.8093 31.51 37.8265 31.4366 37.8737C31.6526 37.9596 31.7434 38.1442 31.8082 38.3459C31.8298 38.4146 31.8514 38.4833 31.8773 38.5477C31.9422 38.728 32.0761 38.8224 32.2619 38.8482C32.3008 38.8568 32.344 38.8611 32.3829 38.8697C32.4305 38.874 32.4434 38.9126 32.4175 38.9469C32.2706 39.1144 32.0934 39.2389 31.8687 39.2818C31.644 39.329 31.4539 39.256 31.2983 39.0886C31.2508 39.0371 31.2076 38.9813 31.16 38.9341C31.0736 38.8439 30.9656 38.8096 30.8446 38.7924C30.9181 38.9126 30.9397 39.0328 30.9224 39.1616C30.9137 39.2346 30.8965 39.3075 30.8835 39.3762C30.8662 39.4664 30.8489 39.5522 30.8532 39.6424C30.8532 39.8184 30.9353 39.9472 31.0823 40.033C31.1168 40.0545 31.1514 40.0674 31.186 40.0889C31.2205 40.1103 31.2292 40.149 31.186 40.1704C30.944 40.2863 30.5983 40.3121 30.365 40.1318C30.2267 40.0288 30.1489 39.8871 30.1186 39.724C30.11 39.6853 30.1057 39.6467 30.097 39.608C30.0668 39.4835 29.9804 39.402 29.868 39.3376C29.8723 39.5007 29.7946 39.6252 29.6909 39.7411C29.6563 39.7798 29.6174 39.8184 29.5828 39.8613C29.531 39.9171 29.4791 39.9772 29.4402 40.0416C29.3538 40.1962 29.3495 40.3507 29.4445 40.5053C29.4575 40.531 29.4748 40.5568 29.4921 40.5825C29.5137 40.6212 29.4964 40.6598 29.4532 40.6598C29.1421 40.6598 28.8137 40.4881 28.7229 40.1661C28.6884 40.0459 28.7013 39.9257 28.7488 39.8055C28.7791 39.7197 28.8137 39.6381 28.8137 39.5479C28.8093 39.4664 28.7791 39.3934 28.7359 39.3204C28.6754 39.4277 28.589 39.5007 28.4853 39.5479C28.4248 39.5737 28.3686 39.5909 28.3081 39.608C28.2346 39.6295 28.1612 39.6467 28.092 39.6681C27.8544 39.7454 27.7291 39.9086 27.7118 40.1575C27.7118 40.1876 27.7118 40.2133 27.6815 40.2305C27.6513 40.2391 27.6297 40.2219 27.6081 40.2048C27.5044 40.1146 27.4136 40.0116 27.3531 39.8828C27.2278 39.6295 27.271 39.3848 27.4698 39.1873C27.513 39.1444 27.5562 39.1015 27.6037 39.0671C27.7075 38.9984 27.755 38.8997 27.7723 38.7838C27.7766 38.7666 27.7766 38.7452 27.7809 38.7237C27.6426 38.8181 27.4914 38.831 27.3358 38.8139C27.2364 38.8053 27.1414 38.7752 27.0463 38.7538C26.9815 38.7366 26.9167 38.7237 26.8519 38.7194C26.6963 38.7151 26.571 38.7795 26.4802 38.8954C26.4543 38.9255 26.437 38.9555 26.4154 38.9813C26.3852 39.0156 26.3463 39.0156 26.329 38.9727C26.2685 38.8267 26.2426 38.6765 26.2599 38.5176C26.2685 38.4232 26.2944 38.3373 26.3377 38.2558C26.4327 38.0798 26.5926 38.0025 26.7827 37.9724C26.8303 37.9639 26.8821 37.9553 26.9296 37.951C27.055 37.9338 27.1457 37.8694 27.2235 37.7664C27.15 37.7664 27.0809 37.7621 27.0161 37.7406C26.921 37.7063 26.8432 37.6548 26.7698 37.5904C26.6963 37.526 26.6228 37.4616 26.5537 37.3929C26.3981 37.2426 26.221 37.2169 26.0265 37.3113C26.0049 37.3199 25.9833 37.3328 25.9574 37.3414C25.9228 37.3543 25.8926 37.3328 25.8969 37.2984C25.9401 37.0495 26.1216 36.7318 26.4025 36.6416C26.5407 36.5944 26.679 36.6073 26.813 36.6631C26.8864 36.6931 26.9556 36.7275 27.0334 36.7361C27.1198 36.7532 27.1932 36.7318 27.2753 36.6974C27.0722 36.5772 26.9858 36.3883 26.934 36.1737C26.921 36.1308 26.908 36.0878 26.8951 36.0492C26.8303 35.8303 26.7093 35.7358 26.4759 35.7315C26.45 35.7272 26.4198 35.7315 26.3938 35.7315C26.3506 35.7272 26.329 35.6886 26.3549 35.6543C26.5148 35.4525 26.7136 35.3065 26.9815 35.2979C27.1543 35.2894 27.2926 35.358 27.4136 35.4739C27.4568 35.5169 27.4957 35.5598 27.5346 35.607C27.621 35.7144 27.7377 35.7573 27.876 35.753C27.8155 35.6714 27.7766 35.5856 27.7636 35.4868C27.7463 35.3752 27.7723 35.2679 27.7939 35.1606C27.8112 35.0876 27.8241 35.0103 27.8284 34.933C27.85 34.7441 27.7723 34.6025 27.6037 34.5123C27.5735 34.4952 27.5389 34.4823 27.5087 34.4651C27.4871 34.4565 27.4784 34.4394 27.4784 34.4179C27.4784 34.3964 27.4914 34.3835 27.5087 34.375C27.742 34.2719 27.9797 34.2505 28.2217 34.3449C28.4248 34.4222 28.5371 34.5853 28.589 34.7914C28.5976 34.8343 28.6106 34.8772 28.6192 34.9245C28.6451 35.0618 28.7272 35.1606 28.8526 35.2378C28.8569 35.1777 28.8526 35.1219 28.8655 35.0661C28.9001 34.9416 28.9735 34.8386 29.06 34.7441C29.1248 34.6755 29.1939 34.6111 29.2501 34.5338C29.3624 34.3878 29.3754 34.2333 29.2933 34.0702C29.276 34.0358 29.2544 34.0058 29.2371 33.9714C29.2155 33.9328 29.2328 33.9027 29.2717 33.8984C29.5871 33.8641 29.9458 34.1303 30.002 34.4351C30.0236 34.5638 30.002 34.684 29.9544 34.8043C29.9242 34.8858 29.8983 34.9631 29.9069 35.0532C29.9156 35.1219 29.9415 35.1863 29.976 35.2507C30.0193 35.1563 30.0884 35.0833 30.1791 35.0318C30.2785 34.9674 30.3909 34.9373 30.5032 34.9116C30.6113 34.8858 30.7193 34.8601 30.8057 34.7871C30.9181 34.6926 30.9613 34.5681 30.9742 34.4308C30.9786 34.405 30.9786 34.3792 30.9786 34.3535C30.9829 34.2977 31.0174 34.2805 31.065 34.3149C31.1125 34.3492 31.16 34.3878 31.2032 34.4308C31.3199 34.5553 31.402 34.7012 31.4236 34.8729C31.4452 35.0447 31.3891 35.1949 31.2724 35.3237C31.2162 35.3881 31.1471 35.4396 31.0866 35.4997C30.9915 35.5813 30.9483 35.68 30.9483 35.7959C31.1514 35.6886 31.3502 35.7358 31.5533 35.7916C31.631 35.8131 31.7131 35.8431 31.7952 35.8517C31.9983 35.8689 32.1409 35.7916 32.2274 35.6113C32.236 35.5984 32.2403 35.5856 32.249 35.5727C32.2576 35.5512 32.2706 35.5298 32.2965 35.5298C32.3224 35.5298 32.3354 35.5469 32.344 35.5641C32.4737 35.8217 32.4607 36.1522 32.2749 36.3755C32.1669 36.5043 32.0243 36.5601 31.8644 36.5815C31.7477 36.5944 31.6354 36.6116 31.5403 36.6931C31.5057 36.7189 31.4712 36.7532 31.4409 36.7962C31.6397 36.7747 31.7996 36.852 31.9422 36.9679C32.0329 37.0409 32.1193 37.1181 32.2101 37.1911C32.3311 37.2984 32.4693 37.3156 32.6206 37.2598C32.6681 37.2426 32.7113 37.2169 32.7589 37.1997C32.8064 37.1825 32.841 37.2083 32.8323 37.2555Z" fill="#66BDE2"/>
</g>
</svg>
